# xmcd CD database file
#
# Track frame offsets:
#	150
#	15147
#	33702
#	57653
#	82754
#	113890
#	131232
#	169558
#	193349
#	220722
#
# Disc length: 3208 seconds
#
# Revision: 0
# Processed by: cddbd v1.5.2PL0 Copyright (c) Steve Scherf et al.
# Submitted via: CDex 1.70beta2
#
DISCID=840c860a
DTITLE=Elizabeth Shepherd - Parkdale
DYEAR=2008
DGENRE=Jazz
TTITLE0=Shining Tear of the Sun
TTITLE1=Parkdale
TTITLE2=Let Me Be
TTITLE3=Higher Ground
TTITLE4=Long As You're Living
TTITLE5=Sicilienne
TTITLE6=Con Alma
TTITLE7=Just ONe Song
TTITLE8=Next Time Round
TTITLE9=Mirror Living
EXTD=YEAR: 2008
EXTT0=
EXTT1=
EXTT2=
EXTT3=
EXTT4=
EXTT5=
EXTT6=
EXTT7=
EXTT8=
EXTT9=
PLAYORDER=
